<svg width="16" height="3" viewBox="0 0 16 3" fill="none" xmlns="http://www.w3.org/2000/svg">
<path d="M1.42454 2.84909C2.2113 2.84909 2.84909 2.2113 2.84909 1.42454C2.84909 0.637787 2.2113 0 1.42454 0C0.63779 0 0 0.637787 0 1.42454C0 2.2113 0.63779 2.84909 1.42454 2.84909Z" fill="#666668"/>
<path d="M7.59756 2.84909C8.38432 2.84909 9.0221 2.2113 9.0221 1.42454C9.0221 0.637787 8.38432 0 7.59756 0C6.8108 0 6.17302 0.637787 6.17302 1.42454C6.17302 2.2113 6.8108 2.84909 7.59756 2.84909Z" fill="#666668"/>
<path d="M15.1951 1.42454C15.1951 2.2113 14.5573 2.84909 13.7706 2.84909C12.9839 2.84909 12.346 2.2113 12.346 1.42454C12.346 0.637787 12.9839 0 13.7706 0C14.5573 0 15.1951 0.637787 15.1951 1.42454Z" fill="#666668"/>
</svg>
