<svg width="17" height="16" viewBox="0 0 17 16" fill="none" xmlns="http://www.w3.org/2000/svg">
<path d="M5.44624 10.8924C5.44624 11.5114 5.20033 12.1051 4.7626 12.5428C4.32488 12.9805 3.73119 13.2264 3.11216 13.2264C2.49312 13.2264 1.89944 12.9805 1.46171 12.5428C1.02399 12.1051 0.778076 11.5114 0.778076 10.8924C0.778076 10.2733 1.02399 9.67965 1.46171 9.24192C1.89944 8.80419 2.49312 8.55828 3.11216 8.55828C3.73119 8.55828 4.32488 8.80419 4.7626 9.24192C5.20033 9.67965 5.44624 10.2733 5.44624 10.8924ZM5.44624 10.8924V0.778015H13.2265V7.00223M5.44624 3.89012H13.2265M13.2265 14.7825V10.1143M13.2265 10.1143L15.5606 12.4484M13.2265 10.1143L10.8924 12.4484" stroke="white" stroke-opacity="0.7" stroke-width="1.55605" stroke-linecap="round" stroke-linejoin="round"/>
</svg>
