<svg width="16" height="16" viewBox="0 0 16 16" fill="none" xmlns="http://www.w3.org/2000/svg">
<path d="M4.53573 11.0258C2.86251 9.34932 1.57574 7.32756 0.765413 5.1019C0.319603 3.88506 0.728067 2.54841 1.64458 1.6319L2.21176 1.06549C2.36425 0.912701 2.54537 0.791483 2.74476 0.708775C2.94414 0.626068 3.15789 0.583496 3.37375 0.583496C3.58961 0.583496 3.80335 0.626068 4.00274 0.708775C4.20213 0.791483 4.38325 0.912701 4.53573 1.06549L5.86382 2.39358C6.01661 2.54607 6.13783 2.72719 6.22054 2.92657C6.30325 3.12596 6.34582 3.33971 6.34582 3.55557C6.34582 3.77143 6.30325 3.98517 6.22054 4.18456C6.13783 4.38395 6.01661 4.56507 5.86382 4.71755L5.53705 5.04432C5.40625 5.17509 5.3025 5.33035 5.23171 5.50122C5.16092 5.67209 5.12448 5.85524 5.12448 6.0402C5.12448 6.22515 5.16092 6.4083 5.23171 6.57917C5.3025 6.75005 5.40625 6.9053 5.53705 7.03607L8.52468 10.0245C8.65545 10.1553 8.8107 10.259 8.98157 10.3298C9.15245 10.4006 9.33559 10.437 9.52055 10.437C9.70551 10.437 9.88865 10.4006 10.0595 10.3298C10.2304 10.259 10.3857 10.1553 10.5164 10.0245L10.844 9.6977C10.9965 9.54491 11.1776 9.42369 11.377 9.34098C11.5764 9.25828 11.7901 9.2157 12.006 9.2157C12.2218 9.2157 12.4356 9.25828 12.6349 9.34098C12.8343 9.42369 13.0155 9.54491 13.1679 9.6977L14.496 11.0258C14.6488 11.1783 14.77 11.3594 14.8527 11.5588C14.9355 11.7582 14.978 11.9719 14.978 12.1878C14.978 12.4036 14.9355 12.6174 14.8527 12.8168C14.77 13.0162 14.6488 13.1973 14.496 13.3498L13.9296 13.9162C13.0131 14.8335 11.6765 15.2419 10.4596 14.7961C8.23397 13.9858 6.2122 12.699 4.53573 11.0258Z" stroke="white" stroke-width="1.16704" stroke-linejoin="round"/>
</svg>
