<svg width="11" height="11" viewBox="0 0 11 11" fill="none" xmlns="http://www.w3.org/2000/svg">
<path d="M2.3434 2.59667H0.874068C0.793442 2.59667 0.716119 2.6287 0.659108 2.68571C0.602097 2.74272 0.570068 2.82005 0.570068 2.90067V7.35934C0.570068 7.39926 0.577931 7.43879 0.593209 7.47568C0.608486 7.51256 0.630879 7.54607 0.659108 7.5743C0.687337 7.60253 0.72085 7.62492 0.757733 7.6402C0.794616 7.65548 0.834146 7.66334 0.874068 7.66334H6.34607C6.38599 7.66334 6.42552 7.65548 6.4624 7.6402C6.49929 7.62492 6.5328 7.60253 6.56103 7.5743C6.58926 7.54607 6.61165 7.51256 6.62693 7.47568C6.64221 7.43879 6.65007 7.39926 6.65007 7.35934V6.65001M4.87673 2.59667H6.34607C6.42669 2.59667 6.50402 2.6287 6.56103 2.68571C6.61804 2.74272 6.65007 2.82005 6.65007 2.90067V4.48097C6.65017 4.5387 6.6667 4.59521 6.69774 4.64388C6.72877 4.69256 6.77303 4.73139 6.82533 4.75584C6.87762 4.78029 6.9358 4.78934 6.99306 4.78194C7.05031 4.77453 7.10427 4.75098 7.14863 4.71403L9.19151 3.01214C9.2359 2.97517 9.28991 2.95161 9.34721 2.94422C9.40451 2.93684 9.46272 2.94593 9.51504 2.97044C9.56735 2.99495 9.6116 3.03386 9.6426 3.08261C9.6736 3.13136 9.69007 3.18794 9.69007 3.24571V6.90334M0.570068 0.570007L9.69007 9.69001" stroke="white" stroke-opacity="0.5" stroke-width="1.14" stroke-linecap="round" stroke-linejoin="round"/>
</svg>
