<svg width="19" height="11" viewBox="0 0 19 11" fill="none" xmlns="http://www.w3.org/2000/svg">
<path d="M17.9136 1.29165C17.8167 1.23969 17.7075 1.21501 17.5976 1.22023C17.4878 1.22545 17.3814 1.26037 17.2898 1.32128L14.588 3.11895V1.21567C14.588 0.893252 14.4599 0.584042 14.2319 0.356061C14.004 0.128079 13.6948 0 13.3723 0H1.21567C0.893252 0 0.584042 0.128079 0.356061 0.356061C0.128079 0.584042 0 0.893252 0 1.21567V9.72534C0 10.0478 0.128079 10.357 0.356061 10.5849C0.584042 10.8129 0.893252 10.941 1.21567 10.941H13.3723C13.6948 10.941 14.004 10.8129 14.2319 10.5849C14.4599 10.357 14.588 10.0478 14.588 9.72534V7.82586L17.2898 9.62732C17.3902 9.69249 17.5075 9.72658 17.6272 9.72534C17.7884 9.72534 17.943 9.6613 18.057 9.54731C18.171 9.43332 18.235 9.27871 18.235 9.1175V1.8235C18.2342 1.71414 18.204 1.607 18.1474 1.5134C18.0909 1.41979 18.0101 1.34318 17.9136 1.29165ZM13.3723 9.72534H1.21567V1.21567H13.3723V9.72534ZM17.0193 7.98161L14.588 6.36098V4.58003L17.0193 2.96319V7.98161Z" fill="white" fill-opacity="0.7"/>
</svg>
