<svg width="20" height="19" viewBox="0 0 20 19" fill="none" xmlns="http://www.w3.org/2000/svg">
<path fill-rule="evenodd" clip-rule="evenodd" d="M1.875 9.5C1.875 7.45286 2.73103 5.48956 4.25476 4.04202C5.77849 2.59447 7.84511 1.78125 10 1.78125C12.1549 1.78125 14.2215 2.59447 15.7452 4.04202C17.269 5.48956 18.125 7.45286 18.125 9.5C18.125 11.5471 17.269 13.5104 15.7452 14.958C14.2215 16.4055 12.1549 17.2188 10 17.2188C7.84511 17.2188 5.77849 16.4055 4.25476 14.958C2.73103 13.5104 1.875 11.5471 1.875 9.5ZM10 0C7.34784 0 4.8043 1.00089 2.92894 2.78249C1.05357 4.56408 0 6.98045 0 9.5C0 12.0195 1.05357 14.436 2.92894 16.2176C4.8043 17.9991 7.34784 19 10 19C12.6521 19 15.1958 17.9991 17.0711 16.2176C18.9464 14.436 20 12.0195 20 9.5C20 6.98045 18.9464 4.56408 17.0711 2.78249C15.1958 1.00089 12.6521 0 10 0ZM6.25 9.5C6.58152 9.5 6.89946 9.37488 7.13389 9.15219C7.3683 8.92949 7.5 8.62745 7.5 8.3125C7.5 7.99755 7.3683 7.69551 7.13389 7.47281C6.89946 7.25012 6.58152 7.125 6.25 7.125C5.91848 7.125 5.60054 7.25012 5.36611 7.47281C5.1317 7.69551 5 7.99755 5 8.3125C5 8.62745 5.1317 8.92949 5.36611 9.15219C5.60054 9.37488 5.91848 9.5 6.25 9.5ZM15 8.3125C15 8.62745 14.8682 8.92949 14.6339 9.15219C14.3995 9.37488 14.0815 9.5 13.75 9.5C13.4185 9.5 13.1005 9.37488 12.8661 9.15219C12.6318 8.92949 12.5 8.62745 12.5 8.3125C12.5 7.99755 12.6318 7.69551 12.8661 7.47281C13.1005 7.25012 13.4185 7.125 13.75 7.125C14.0815 7.125 14.3995 7.25012 14.6339 7.47281C14.8682 7.69551 15 7.99755 15 8.3125ZM6.65 11.4427C6.85168 11.3086 7.1008 11.2552 7.34357 11.2941C7.58635 11.333 7.80327 11.461 7.9475 11.6506L7.95625 11.6612C8.08481 11.8013 8.23186 11.925 8.39375 12.0294C8.72375 12.2408 9.2475 12.4688 10 12.4688C10.7525 12.4688 11.275 12.2407 11.6062 12.0282C11.7681 11.9238 11.9152 11.8001 12.0438 11.6601L12.0525 11.6506C12.1967 11.4581 12.4155 11.328 12.6606 11.2888C12.9059 11.2496 13.1575 11.3046 13.36 11.4416C13.5625 11.5786 13.6995 11.7864 13.7408 12.0193C13.782 12.2523 13.7243 12.4913 13.58 12.6837L12.8125 12.1719C13.58 12.6825 13.58 12.6837 13.5787 12.6837V12.6849L13.5775 12.6873L13.575 12.6908L13.5687 12.6991L13.5512 12.7217C13.481 12.8111 13.4041 12.8955 13.3212 12.9746C13.1204 13.1722 12.8984 13.3493 12.6587 13.5031C11.8715 13.9999 10.9451 14.2602 10 14.25C8.8175 14.25 7.935 13.8842 7.3425 13.5019C7.02899 13.3004 6.74595 13.0591 6.50125 12.7846C6.48338 12.764 6.46587 12.7429 6.44875 12.7217L6.43125 12.6979L6.425 12.6908L6.4225 12.6873V12.6849H6.42125L7.1875 12.1719L6.42 12.6825C6.27745 12.4892 6.22147 12.2501 6.26436 12.0176C6.30726 11.7852 6.4455 11.5784 6.64875 11.4427H6.65Z" fill="#C7C7C7"/>
</svg>
