<svg width="19" height="18" viewBox="0 0 19 18" fill="none" xmlns="http://www.w3.org/2000/svg">
<path fill-rule="evenodd" clip-rule="evenodd" d="M5.63898 2.66623C4.76101 3.14638 3.99146 3.78565 3.37427 4.54755C2.75709 5.30944 2.30436 6.17904 2.04191 7.10671C1.51189 8.98019 1.78916 10.9764 2.81273 12.6562C3.83629 14.3361 5.52232 15.5619 7.4999 16.064C9.47746 16.5661 11.5846 16.3035 13.3577 15.3337C13.5615 15.2309 13.7995 15.2071 14.0214 15.2672C14.2434 15.3274 14.4319 15.4669 14.5475 15.6564C14.663 15.8457 14.6964 16.0702 14.6406 16.2824C14.5848 16.4946 14.4442 16.6781 14.2484 16.794C12.4523 17.7759 10.3664 18.1741 8.30901 17.9279C6.25165 17.6815 4.33588 16.8042 2.85409 15.4299C1.3723 14.0556 0.405875 12.2597 0.102336 10.3162C-0.201204 8.37282 0.174812 6.3887 1.17299 4.6667C2.17117 2.9447 3.73668 1.57941 5.63058 0.779233C7.52448 -0.020952 9.64273 -0.212084 11.662 0.23501C13.6813 0.682104 15.4907 1.74287 16.8141 3.25538C18.1374 4.76791 18.902 6.64911 18.9912 8.61186C18.996 8.64731 18.9984 8.683 18.9984 8.71873V8.83573C18.9992 8.90698 18.9992 8.97824 18.9984 9.04948V10.4062C18.9988 11.0764 18.7695 11.7284 18.345 12.2645C17.9206 12.8006 17.3239 13.1916 16.6446 13.3787C15.9654 13.5659 15.2404 13.539 14.5787 13.3022C13.917 13.0654 13.3543 12.6315 12.9754 12.0656C12.2216 12.8327 11.2089 13.3266 10.112 13.4621C9.01496 13.5974 7.90249 13.3658 6.96648 12.8072C6.03048 12.2485 5.32964 11.3979 4.98489 10.4021C4.64015 9.40625 4.67311 8.32764 5.0781 7.35235C5.48308 6.37707 6.23469 5.56629 7.20323 5.05989C8.17179 4.55351 9.29654 4.38326 10.3834 4.57855C11.4703 4.77383 12.4512 5.32239 13.1568 6.12957C13.8623 6.93675 14.2485 7.95194 14.2484 8.99998V10.4062C14.2484 10.7792 14.4047 11.1369 14.6831 11.4006C14.9614 11.6643 15.3391 11.8125 15.7327 11.8125C16.1264 11.8125 16.504 11.6643 16.7824 11.4006C17.0607 11.1369 17.2171 10.7792 17.2171 10.4062V8.85036C17.1898 7.57949 16.8132 6.33731 16.1246 5.24635C15.436 4.15539 14.4591 3.25334 13.2903 2.62914C12.1214 2.00496 10.801 1.68019 9.45926 1.6869C8.11753 1.69359 6.80081 2.03153 5.63898 2.66736V2.66623ZM12.4671 8.99998C12.4671 8.25406 12.1543 7.5387 11.5976 7.01124C11.0408 6.4838 10.2857 6.18748 9.49835 6.18748C8.71099 6.18748 7.95587 6.4838 7.39912 7.01124C6.84238 7.5387 6.5296 8.25406 6.5296 8.99998C6.5296 9.7459 6.84238 10.4613 7.39912 10.9887C7.95587 11.5162 8.71099 11.8125 9.49835 11.8125C10.2857 11.8125 11.0408 11.5162 11.5976 10.9887C12.1543 10.4613 12.4671 9.7459 12.4671 8.99998Z" fill="#C7C7C7"/>
</svg>
