<svg width="10" height="12" viewBox="0 0 10 12" fill="none" xmlns="http://www.w3.org/2000/svg">
<path fill-rule="evenodd" clip-rule="evenodd" d="M5.32326 7.14489C4.98553 7.23433 4.63177 7.24506 4.28924 7.17626C3.9467 7.10746 3.62453 6.96096 3.34752 6.74805C3.07052 6.53514 2.84607 6.26149 2.69147 5.94818C2.53687 5.63488 2.45624 5.29027 2.45578 4.94089V4.22649L0.152982 1.92369C0.052297 1.81564 -0.00251664 1.67272 8.88037e-05 1.52505C0.00269425 1.37738 0.0625153 1.23649 0.166949 1.13206C0.271383 1.02762 0.412276 0.967802 0.559945 0.965197C0.707613 0.962591 0.850529 1.01741 0.958582 1.11809L9.31858 9.47809C9.37458 9.53027 9.4195 9.5932 9.45065 9.66312C9.48181 9.73304 9.49856 9.80852 9.49991 9.88505C9.50126 9.96159 9.48718 10.0376 9.45852 10.1086C9.42985 10.1796 9.38718 10.244 9.33305 10.2982C9.27892 10.3523 9.21445 10.395 9.14348 10.4236C9.0725 10.4523 8.99648 10.4664 8.91994 10.465C8.84341 10.4637 8.76793 10.4469 8.69801 10.4158C8.62809 10.3846 8.56516 10.3397 8.51298 10.2837L7.08114 8.85261C6.53833 9.17804 5.93372 9.38691 5.30578 9.46593V10.8309C5.30578 10.9821 5.24573 11.127 5.13883 11.2339C5.03194 11.3408 4.88696 11.4009 4.73578 11.4009C4.58461 11.4009 4.43963 11.3408 4.33273 11.2339C4.22583 11.127 4.16578 10.9821 4.16578 10.8309V9.46593C3.06369 9.32708 2.05017 8.79072 1.31552 7.95755C0.580859 7.12438 0.175586 6.0517 0.175782 4.94089V4.75089C0.175782 4.59972 0.235835 4.45473 0.342731 4.34784C0.449627 4.24094 0.594608 4.18089 0.745782 4.18089C0.896955 4.18089 1.04194 4.24094 1.14883 4.34784C1.25573 4.45473 1.31578 4.59972 1.31578 4.75089V4.94089C1.31559 5.52169 1.46331 6.09297 1.74502 6.60087C2.02673 7.10877 2.43315 7.53657 2.92596 7.84392C3.41877 8.15127 3.98174 8.32805 4.56179 8.3576C5.14183 8.38715 5.71985 8.26849 6.24134 8.01281L5.36278 7.13349L5.32326 7.14489ZM5.87578 2.28089V4.40737L6.95118 5.48277C6.99425 5.30848 7.01578 5.12785 7.01578 4.94089V2.28089C7.01598 1.76926 6.84409 1.27243 6.52775 0.870309C6.21142 0.46819 5.76903 0.184155 5.27173 0.0638882C4.77443 -0.0563787 4.25114 -0.00588742 3.78601 0.207241C3.32088 0.42037 2.94096 0.783748 2.70734 1.23893L3.60414 2.13573C3.63927 1.84679 3.7836 1.58223 4.00753 1.39629C4.23146 1.21034 4.51803 1.11709 4.80851 1.13565C5.09898 1.15421 5.37135 1.28318 5.5698 1.49612C5.76824 1.70905 5.87771 1.98983 5.87578 2.28089ZM7.8419 6.37349L8.68778 7.21861C9.07538 6.54829 9.29578 5.77081 9.29578 4.94089V4.75089C9.29578 4.59972 9.23573 4.45473 9.12883 4.34784C9.02194 4.24094 8.87696 4.18089 8.72578 4.18089C8.57461 4.18089 8.42963 4.24094 8.32273 4.34784C8.21584 4.45473 8.15578 4.59972 8.15578 4.75089V4.94089C8.15598 5.4355 8.04889 5.92427 7.8419 6.37349Z" fill="white" fill-opacity="0.5"/>
</svg>
