<svg width="11" height="15" viewBox="0 0 11 15" fill="none" xmlns="http://www.w3.org/2000/svg">
<path d="M5.39382 9.33632C4.74547 9.33632 4.19436 9.1094 3.74051 8.65555C3.28667 8.2017 3.05974 7.6506 3.05974 7.00224V2.33408C3.05974 1.68572 3.28667 1.13462 3.74051 0.680774C4.19436 0.226925 4.74547 0 5.39382 0C6.04218 0 6.59328 0.226925 7.04713 0.680774C7.50098 1.13462 7.7279 1.68572 7.7279 2.33408V7.00224C7.7279 7.6506 7.50098 8.2017 7.04713 8.65555C6.59328 9.1094 6.04218 9.33632 5.39382 9.33632ZM4.61579 14.0045V12.3901C3.42282 12.2215 2.40179 11.7158 1.5527 10.8729C0.703616 10.0301 0.188043 9.00566 0.0059848 7.79972C-0.0199494 7.57928 0.0384029 7.39126 0.181041 7.23565C0.323679 7.08005 0.505219 7.00224 0.72566 7.00224C0.946101 7.00224 1.13101 7.07693 1.28039 7.22631C1.42977 7.3757 1.53014 7.56035 1.58149 7.78027C1.76303 8.68797 2.21377 9.43358 2.9337 10.0171C3.65363 10.6006 4.47367 10.8924 5.39382 10.8924C6.32745 10.8924 7.15087 10.5975 7.86406 10.0078C8.57725 9.41802 9.02461 8.67552 9.20615 7.78027C9.25802 7.55983 9.35865 7.37518 9.50803 7.22631C9.65741 7.07745 9.84206 7.00276 10.062 7.00224C10.2819 7.00172 10.4634 7.07953 10.6066 7.23565C10.7498 7.39177 10.8081 7.5798 10.7817 7.79972C10.6001 8.97973 10.0879 9.99765 9.24506 10.8535C8.40219 11.7093 7.37779 12.2215 6.17185 12.3901V14.0045C6.17185 14.2249 6.09716 14.4098 5.94778 14.5592C5.7984 14.7086 5.61374 14.783 5.39382 14.7825C5.1739 14.782 4.98925 14.7073 4.83987 14.5584C4.69049 14.4096 4.61579 14.2249 4.61579 14.0045ZM5.39382 7.78027C5.61426 7.78027 5.79917 7.70558 5.94855 7.5562C6.09794 7.40682 6.17237 7.22216 6.17185 7.00224V2.33408C6.17185 2.11364 6.09716 1.92899 5.94778 1.78013C5.7984 1.63126 5.61374 1.55657 5.39382 1.55605C5.1739 1.55554 4.98925 1.63023 4.83987 1.78013C4.69049 1.93003 4.61579 2.11468 4.61579 2.33408V7.00224C4.61579 7.22268 4.69049 7.40759 4.83987 7.55698C4.98925 7.70636 5.1739 7.78079 5.39382 7.78027Z" fill="white" fill-opacity="0.7"/>
</svg>
