<svg width="4" height="16" viewBox="0 0 4 16" fill="none" xmlns="http://www.w3.org/2000/svg">
<path d="M0 13.5668C0 13.167 0.158818 12.7836 0.441515 12.5009C0.724213 12.2182 1.10763 12.0594 1.50743 12.0594C1.90722 12.0594 2.29064 12.2182 2.57334 12.5009C2.85604 12.7836 3.01485 13.167 3.01485 13.5668C3.01485 13.9666 2.85604 14.3501 2.57334 14.6328C2.29064 14.9155 1.90722 15.0743 1.50743 15.0743C1.10763 15.0743 0.724213 14.9155 0.441515 14.6328C0.158818 14.3501 0 13.9666 0 13.5668ZM0 7.53714C0 7.13734 0.158818 6.75392 0.441515 6.47122C0.724213 6.18853 1.10763 6.02971 1.50743 6.02971C1.90722 6.02971 2.29064 6.18853 2.57334 6.47122C2.85604 6.75392 3.01485 7.13734 3.01485 7.53714C3.01485 7.93693 2.85604 8.32035 2.57334 8.60305C2.29064 8.88575 1.90722 9.04456 1.50743 9.04456C1.10763 9.04456 0.724213 8.88575 0.441515 8.60305C0.158818 8.32035 0 7.93693 0 7.53714ZM0 1.50743C0 1.10763 0.158818 0.724213 0.441515 0.441515C0.724213 0.158818 1.10763 0 1.50743 0C1.90722 0 2.29064 0.158818 2.57334 0.441515C2.85604 0.724213 3.01485 1.10763 3.01485 1.50743C3.01485 1.90722 2.85604 2.29064 2.57334 2.57334C2.29064 2.85604 1.90722 3.01485 1.50743 3.01485C1.10763 3.01485 0.724213 2.85604 0.441515 2.57334C0.158818 2.29064 0 1.90722 0 1.50743Z" fill="white" fill-opacity="0.7"/>
</svg>
