<svg width="18" height="16" viewBox="0 0 18 16" fill="none" xmlns="http://www.w3.org/2000/svg">
<path fill-rule="evenodd" clip-rule="evenodd" d="M1.74134 1.80291L2.62913 6.9077H8.10696C8.57295 6.9077 8.95071 7.28545 8.95071 7.75145C8.95071 8.21744 8.57295 8.5952 8.10696 8.5952H2.62913L1.74134 13.7L15.6213 7.75145L1.74134 1.80291ZM1.06304 7.75145L0.022333 1.76738C-0.0617997 1.28362 0.0947349 0.789174 0.441942 0.441966C0.878201 0.00571314 1.53612 -0.120996 2.1032 0.122038L17.1809 6.58388C17.6478 6.78405 17.9507 7.2433 17.9507 7.75145C17.9507 8.25959 17.6478 8.71885 17.1809 8.91902L2.1032 15.3808C1.53612 15.6239 0.878201 15.4971 0.441942 15.061C0.0947349 14.7137 -0.0617999 14.2193 0.022333 13.7355L1.06304 7.75145Z" fill="#C7C7C7"/>
</svg>
