<svg width="40" height="34" viewBox="0 0 40 34" fill="none" xmlns="http://www.w3.org/2000/svg">
<path d="M38.5 32.875C38.5 29.1733 35.0208 26.0261 30.1667 24.8574M26 32.875C26 28.1787 20.4042 24.375 13.5 24.375C6.59583 24.375 1 28.1787 1 32.875M26 18C28.2101 18 30.3298 17.1045 31.8926 15.5104C33.4554 13.9163 34.3333 11.7543 34.3333 9.5C34.3333 7.24566 33.4554 5.08365 31.8926 3.48959C30.3298 1.89553 28.2101 1 26 1M13.5 18C11.2899 18 9.17025 17.1045 7.60744 15.5104C6.04464 13.9163 5.16667 11.7543 5.16667 9.5C5.16667 7.24566 6.04464 5.08365 7.60744 3.48959C9.17025 1.89553 11.2899 1 13.5 1C15.7101 1 17.8298 1.89553 19.3926 3.48959C20.9554 5.08365 21.8333 7.24566 21.8333 9.5C21.8333 11.7543 20.9554 13.9163 19.3926 15.5104C17.8298 17.1045 15.7101 18 13.5 18Z" stroke="white" stroke-opacity="0.35" stroke-width="2" stroke-linecap="round" stroke-linejoin="round"/>
</svg>
