<svg width="13" height="16" viewBox="0 0 13 16" fill="none" xmlns="http://www.w3.org/2000/svg">
<path d="M5.67415 0.227796C5.82005 0.0819381 6.01791 0 6.22422 0C6.43052 0 6.62838 0.0819381 6.77428 0.227796L9.10836 2.56188C9.25008 2.70861 9.32851 2.90515 9.32673 3.10914C9.32496 3.31314 9.24314 3.50828 9.09888 3.65253C8.95463 3.79678 8.75949 3.87861 8.5555 3.88038C8.3515 3.88215 8.15497 3.80373 8.00823 3.66201L7.00224 2.65602V10.1142C7.00224 10.3205 6.92027 10.5184 6.77436 10.6643C6.62845 10.8102 6.43056 10.8922 6.22422 10.8922C6.01787 10.8922 5.81998 10.8102 5.67407 10.6643C5.52816 10.5184 5.44619 10.3205 5.44619 10.1142V2.65602L4.4402 3.66201C4.29346 3.80373 4.09693 3.88215 3.89293 3.88038C3.68894 3.87861 3.4938 3.79678 3.34955 3.65253C3.20529 3.50828 3.12347 3.31314 3.1217 3.10914C3.11993 2.90515 3.19835 2.70861 3.34007 2.56188L5.67415 0.227796ZM0 7.00208C0 6.58939 0.163941 6.1936 0.455758 5.90178C0.747574 5.60996 1.14336 5.44602 1.55605 5.44602H3.11211C3.31845 5.44602 3.51635 5.52799 3.66226 5.6739C3.80816 5.81981 3.89013 6.0177 3.89013 6.22405C3.89013 6.43039 3.80816 6.62829 3.66226 6.7742C3.51635 6.92011 3.31845 7.00208 3.11211 7.00208H1.55605V14.0043H10.8924V7.00208H9.33632C9.12998 7.00208 8.93208 6.92011 8.78617 6.7742C8.64027 6.62829 8.5583 6.43039 8.5583 6.22405C8.5583 6.0177 8.64027 5.81981 8.78617 5.6739C8.93208 5.52799 9.12998 5.44602 9.33632 5.44602H10.8924C11.3051 5.44602 11.7009 5.60996 11.9927 5.90178C12.2845 6.1936 12.4484 6.58939 12.4484 7.00208V14.0043C12.4484 14.417 12.2845 14.8128 11.9927 15.1046C11.7009 15.3964 11.3051 15.5604 10.8924 15.5604H1.55605C1.14336 15.5604 0.747574 15.3964 0.455758 15.1046C0.163941 14.8128 0 14.417 0 14.0043V7.00208Z" fill="white" fill-opacity="0.7"/>
</svg>
