<svg width="19" height="15" viewBox="0 0 19 15" fill="none" xmlns="http://www.w3.org/2000/svg">
<path d="M14.0824 0.735881C14.3158 0.502517 14.593 0.31742 14.8979 0.191157C15.2029 0.0648943 15.5298 -6.09151e-05 15.8599 4.28652e-08C16.19 6.10008e-05 16.5168 0.065137 16.8218 0.191512C17.1267 0.317888 17.4038 0.503087 17.6371 0.736537C17.8705 0.969987 18.0556 1.24712 18.1818 1.5521C18.3081 1.85708 18.3731 2.18395 18.373 2.51404C18.3729 2.84413 18.3079 3.17097 18.1815 3.47591C18.0551 3.78084 17.8699 4.05791 17.6365 4.29127L14.1704 7.75738C13.7828 8.14497 13.3043 8.42933 12.7787 8.58452L10.8539 9.1517C10.6278 9.21821 10.388 9.22262 10.1595 9.16448C9.93114 9.10634 9.72259 8.98779 9.5558 8.82126C9.389 8.65474 9.27011 8.44638 9.2116 8.21807C9.15309 7.98975 9.15712 7.7499 9.22327 7.52368L9.78782 5.59762C9.94317 5.07026 10.2285 4.59037 10.6176 4.20199L14.0824 0.735881ZM16.7082 1.66543C16.5968 1.55392 16.4645 1.46546 16.3188 1.4051C16.1732 1.34475 16.0171 1.31369 15.8594 1.31369C15.7018 1.31369 15.5457 1.34475 15.4 1.4051C15.2544 1.46546 15.1221 1.55392 15.0106 1.66543L11.5445 5.13023C11.3116 5.3635 11.1409 5.65152 11.0482 5.96787L10.4837 7.89261L12.4058 7.32543C12.7209 7.23221 13.0097 7.06153 13.2408 6.82914L16.7069 3.36303C16.8184 3.25159 16.9069 3.11927 16.9672 2.97363C17.0276 2.82799 17.0587 2.67188 17.0587 2.51423C17.0587 2.35658 17.0276 2.20047 16.9672 2.05483C16.9069 1.90919 16.8197 1.77687 16.7082 1.66543ZM11.6482 1.31357H3.2823C2.41178 1.31357 1.57691 1.65938 0.961364 2.27493C0.345813 2.89048 0 3.72535 0 4.59587V11.1605C0 12.031 0.345813 12.8659 0.961364 13.4814C1.57691 14.097 2.41178 14.4428 3.2823 14.4428H15.0986C15.9691 14.4428 16.804 14.097 17.4195 13.4814C18.0351 12.8659 18.3809 12.031 18.3809 11.1605V5.40331L17.068 6.71623V11.1605C17.068 11.6828 16.8605 12.1837 16.4911 12.553C16.1218 12.9224 15.6209 13.1298 15.0986 13.1298H3.2823C2.75999 13.1298 2.25907 12.9224 1.88974 12.553C1.52041 12.1837 1.31292 11.6828 1.31292 11.1605V6.92236C2.04159 6.32761 2.8753 5.788 3.60922 5.51622C4.01622 5.36393 4.34052 5.31535 4.57421 5.34292C4.78034 5.36786 4.92214 5.44795 5.03374 5.61601C5.19917 5.86415 5.19917 6.0624 5.09282 6.32104C4.96415 6.63615 4.69894 6.97357 4.34052 7.41077L4.29588 7.46722C3.97684 7.85453 3.58952 8.32719 3.35582 8.8366C3.09193 9.40903 2.99477 10.0839 3.35189 10.7981C3.90331 11.9036 5.14796 12.0217 6.12871 11.8327C7.21035 11.6087 8.20585 11.0814 8.99876 10.3123C9.05979 10.2513 9.10821 10.1788 9.14124 10.0991C9.17427 10.0193 9.19127 9.93386 9.19127 9.84755C9.19127 9.76123 9.17427 9.67576 9.14124 9.59601C9.10821 9.51627 9.05979 9.44381 8.99876 9.38277C8.93772 9.32174 8.86526 9.27332 8.78552 9.24029C8.70577 9.20726 8.6203 9.19026 8.53398 9.19026C8.44767 9.19026 8.3622 9.20726 8.28245 9.24029C8.2027 9.27332 8.13024 9.32174 8.06921 9.38277C7.50728 9.94602 6.65126 10.3937 5.87926 10.5434C5.06525 10.7009 4.66612 10.4909 4.52695 10.2099C4.39041 9.93945 4.40485 9.69525 4.54796 9.3854C4.70813 9.03616 4.99697 8.68299 5.35672 8.24316L5.36984 8.2274C5.69545 7.8309 6.09326 7.34381 6.30858 6.81864C6.55016 6.22783 6.57248 5.55824 6.12609 4.88865C5.97151 4.65138 5.76562 4.45186 5.5236 4.30484C5.28158 4.15781 5.00963 4.06702 4.72783 4.03919C4.2066 3.97748 3.65911 4.09696 3.15232 4.2847C2.53656 4.51315 1.90242 4.87289 1.31292 5.2799V4.59587C1.31292 4.33724 1.36386 4.08115 1.46283 3.84222C1.5618 3.60328 1.70686 3.38618 1.88974 3.2033C2.07261 3.02043 2.28972 2.87537 2.52865 2.7764C2.76759 2.67743 3.02368 2.62649 3.2823 2.62649H10.3353L11.6482 1.31357Z" fill="white" fill-opacity="0.7"/>
</svg>
