<svg width="88" height="22" viewBox="0 0 88 22" fill="none" xmlns="http://www.w3.org/2000/svg">
<path d="M10.9501 19.05C12.3501 19.05 13.5501 18.87 14.5501 18.51C15.5701 18.15 16.3401 17.63 16.8601 16.95L18.8401 19.14C18.4601 19.56 18.0301 19.94 17.5501 20.28C17.0701 20.62 16.5101 20.91 15.8701 21.15C15.2501 21.39 14.5401 21.57 13.7401 21.69C12.9401 21.83 12.0301 21.9 11.0101 21.9C9.4101 21.9 7.9301 21.65 6.5701 21.15C5.2301 20.63 4.0701 19.9 3.0901 18.96C2.1301 18.02 1.3701 16.87 0.810098 15.51C0.270098 14.15 9.7692e-05 12.63 9.7692e-05 10.95C9.7692e-05 9.27 0.270098 7.75 0.810098 6.39C1.3501 5.03 2.1001 3.88 3.0601 2.94C4.0401 2 5.2001 1.28 6.5401 0.78C7.9001 0.26 9.3901 -2.38419e-07 11.0101 -2.38419e-07C12.8701 -2.38419e-07 14.4001 0.26 15.6001 0.78C16.8001 1.28 17.8001 1.95 18.6001 2.79L16.6201 4.98C16.0601 4.3 15.3001 3.78 14.3401 3.42C13.3801 3.04 12.3301 2.85 11.1901 2.85C10.0101 2.85 8.9201 3.04 7.9201 3.42C6.9401 3.78 6.0901 4.31 5.3701 5.01C4.6701 5.71 4.1201 6.56 3.7201 7.56C3.3401 8.54 3.1501 9.66 3.1501 10.92C3.1501 12.18 3.3501 13.32 3.7501 14.34C4.1501 15.34 4.7001 16.19 5.4001 16.89C6.1001 17.59 6.9201 18.13 7.8601 18.51C8.8201 18.87 9.8501 19.05 10.9501 19.05ZM28.7692 -2.38419e-07L38.9992 21.45H35.6692L32.5492 14.91H21.6592L28.7692 -2.38419e-07ZM26.2792 12.21H31.2592L28.7692 6.99L26.2792 12.21ZM39.8872 0.449999H42.8872V18.75H54.8872V21.45H39.8872V0.449999ZM57.2896 0.449999H60.2896V18.75H72.2896V21.45H57.2896V0.449999ZM76.6902 11.37L68.6802 0.449999H72.3102L78.1902 8.46L84.0702 0.449999H87.7002L79.6902 11.37V21.45H76.6902V11.37Z" fill="white"/>
</svg>
