<svg width="43" height="43" viewBox="0 0 43 43" fill="none" xmlns="http://www.w3.org/2000/svg">
<g clip-path="url(#clip0_2049_51)">
<path d="M21.5 43C9.62528 43 0 33.3747 0 21.5C0 9.62528 9.62528 0 21.5 0C33.3747 0 43 9.62528 43 21.5C43 27.2022 40.7348 32.6708 36.7028 36.7028C32.6708 40.7348 27.2022 43 21.5 43ZM21.5 2.6875C11.1101 2.6875 2.6875 11.1101 2.6875 21.5C2.6875 31.8899 11.1101 40.3125 21.5 40.3125C31.8899 40.3125 40.3125 31.8899 40.3125 21.5C40.3125 16.5106 38.3305 11.7256 34.8024 8.19755C31.2744 4.66953 26.4894 2.6875 21.5 2.6875Z" fill="white" fill-opacity="0.58"/>
<path d="M30.9062 20.1562H22.8438V12.0938H20.1562V20.1562H12.0938V22.8438H20.1562V30.9062H22.8438V22.8438H30.9062V20.1562Z" fill="white" fill-opacity="0.58"/>
</g>
<defs>
<clipPath id="clip0_2049_51">
<rect width="43" height="43" fill="white"/>
</clipPath>
</defs>
</svg>
