<svg width="40" height="41" viewBox="0 0 40 41" fill="none" xmlns="http://www.w3.org/2000/svg">
<path d="M14.7086 4.3195C13.9401 7.7115 16.1661 13.4885 19.9291 13.4885C23.6656 13.4885 25.8916 7.7115 25.1231 4.3195C24.5401 1.7225 22.2611 0 19.9291 0C17.5706 0 15.3181 1.7225 14.7086 4.3195ZM3.76407 6.7045C3.10157 9.5665 5.00957 14.469 8.18957 14.469C11.3696 14.469 13.2776 9.5665 12.6151 6.7045C12.1116 4.505 10.1771 3.021 8.18957 3.021C6.20207 3.021 4.26757 4.505 3.76407 6.7045ZM27.2431 6.7045C26.5806 9.5665 28.4886 14.469 31.6421 14.469C34.8221 14.469 36.7301 9.5665 36.0676 6.7045C35.5641 4.505 33.6296 3.021 31.6421 3.021C29.6811 3.021 27.7466 4.505 27.2431 6.7045ZM25.6796 36.994L28.9921 25.599C31.0591 19.0005 27.1106 14.946 19.9291 14.946C12.7211 14.946 8.77257 19.0005 10.8131 25.599L14.1521 36.994C14.7616 38.902 17.2791 40.2005 19.9291 40.2005C22.5261 40.2005 25.0701 38.902 25.6796 36.994ZM9.51457 16.7745C8.21607 18.55 6.97057 21.624 8.40157 26.288L11.3696 36.3315C10.4686 36.8615 9.32907 37.153 8.18957 37.153C5.93707 37.153 3.81707 36.0665 3.28707 34.4235L0.451571 24.751C-1.27093 19.1595 2.06807 15.741 8.18957 15.741C8.90507 15.741 9.62057 15.794 10.2831 15.9C10.0181 16.165 9.75307 16.483 9.51457 16.7745ZM31.6421 15.741C37.7636 15.741 41.1291 19.1595 39.3801 24.751L36.5446 34.4235C36.0146 36.0665 33.8946 37.153 31.6421 37.153C30.5026 37.153 29.3631 36.8615 28.4621 36.3315L31.4036 26.341C32.8611 21.624 31.6156 18.55 30.2906 16.7745C30.0786 16.483 29.8136 16.165 29.5486 15.9C30.2111 15.794 30.9001 15.741 31.6421 15.741Z" fill="white" fill-opacity="0.58"/>
</svg>
