<svg width="43" height="49" viewBox="0 0 43 49" fill="none" xmlns="http://www.w3.org/2000/svg">
<g clip-path="url(#clip0_2049_54)">
<path d="M42.3412 11.7424L22.1556 0.174399C21.9561 0.0602145 21.7301 0.00012207 21.5 0.00012207C21.2699 0.00012207 21.0439 0.0602145 20.8444 0.174399L0.658438 11.7424C0.458256 11.8571 0.291982 12.0223 0.176382 12.2214C0.0607823 12.4204 -5.65925e-05 12.6463 3.95009e-08 12.8763V36.0049C-5.65925e-05 36.2349 0.0607823 36.4608 0.176382 36.6599C0.291982 36.8589 0.458256 37.0241 0.658438 37.1388L20.8444 48.7065C21.0439 48.8207 21.2699 48.8808 21.5 48.8808C21.7301 48.8808 21.9561 48.8207 22.1556 48.7065L42.3416 37.1388C42.5417 37.0241 42.708 36.8589 42.8236 36.6599C42.9392 36.4608 43.0001 36.2349 43 36.0049V12.8763C43 12.408 42.7491 11.9757 42.3412 11.7424ZM19.9614 7.58945C19.9615 7.62777 19.9514 7.66543 19.9322 7.69861C19.9129 7.7318 19.8853 7.75933 19.8519 7.77843L12.6311 11.9209C12.5978 11.94 12.5701 11.9676 12.5509 12.0007C12.5317 12.0339 12.5215 12.0715 12.5215 12.1098C12.5215 12.1481 12.5317 12.1858 12.5509 12.2189C12.5701 12.2521 12.5978 12.2796 12.6311 12.2988L19.8514 16.4365C19.9192 16.4753 19.9614 16.5473 19.9614 16.6254V19.6316C19.9615 19.6699 19.9514 19.7075 19.9323 19.7407C19.9131 19.7739 19.8855 19.8014 19.8522 19.8206C19.8189 19.8397 19.7811 19.8498 19.7427 19.8498C19.7042 19.8498 19.6665 19.8397 19.6332 19.8206L6.50946 12.3001C6.47615 12.281 6.44849 12.2534 6.42926 12.2203C6.41003 12.1871 6.39991 12.1495 6.39991 12.1112C6.39991 12.0729 6.41003 12.0352 6.42926 12.0021C6.44849 11.9689 6.47615 11.9414 6.50946 11.9222L19.6329 4.39342C19.7787 4.3098 19.9614 4.41482 19.9614 4.58239V7.58945ZM36.4902 12.3001L23.3557 19.8269C23.3224 19.846 23.2847 19.856 23.2463 19.856C23.2079 19.8559 23.1702 19.8458 23.137 19.8267C23.1038 19.8076 23.0762 19.7801 23.057 19.747C23.0378 19.7139 23.0277 19.6763 23.0277 19.6381V16.6319C23.0277 16.5538 23.0697 16.4819 23.1377 16.4429L30.3687 12.2995C30.5151 12.2159 30.5151 12.0055 30.3687 11.9214L23.1377 7.77258C23.1044 7.75349 23.0767 7.72598 23.0574 7.69283C23.0382 7.65968 23.0281 7.62205 23.0282 7.58377V4.57671C23.0282 4.53842 23.0383 4.5008 23.0575 4.46763C23.0767 4.43446 23.1043 4.40691 23.1376 4.38776C23.1709 4.36861 23.2087 4.35852 23.2472 4.35851C23.2856 4.35851 23.3234 4.36859 23.3567 4.38773L36.491 11.9225C36.6365 12.0061 36.6365 12.2164 36.4902 12.3001Z" fill="white" fill-opacity="0.58"/>
</g>
<defs>
<clipPath id="clip0_2049_54">
<rect width="43" height="49" fill="white"/>
</clipPath>
</defs>
</svg>
