<svg width="24" height="24" viewBox="0 0 24 24" fill="none" xmlns="http://www.w3.org/2000/svg">
<path d="M13.7 14.8V16H6V14.8C6 14.8 6 12.4 9.85 12.4C13.7 12.4 13.7 14.8 13.7 14.8ZM11.775 9.10002C11.775 8.68468 11.6621 8.27866 11.4506 7.93332C11.2391 7.58798 10.9384 7.31882 10.5867 7.15987C10.2349 7.00093 9.84786 6.95934 9.47445 7.04037C9.10104 7.1214 8.75804 7.32141 8.48882 7.6151C8.2196 7.90879 8.03627 8.28297 7.96199 8.69033C7.88771 9.09769 7.92583 9.51993 8.07153 9.90365C8.21723 10.2874 8.46396 10.6153 8.78053 10.8461C9.09709 11.0768 9.46927 11.2 9.85 11.2C10.3605 11.2 10.8502 10.9788 11.2112 10.5849C11.5722 10.1911 11.775 9.65697 11.775 9.10002ZM13.667 12.4C14.0051 12.6855 14.2818 13.0483 14.4775 13.4629C14.6733 13.8776 14.7833 14.334 14.8 14.8V16H17V14.8C17 14.8 17 12.622 13.667 12.4ZM13.15 7.00002C12.7715 6.9981 12.4013 7.12154 12.0885 7.35402C12.4226 7.86326 12.6022 8.47379 12.6022 9.10002C12.6022 9.72624 12.4226 10.3368 12.0885 10.846C12.4013 11.0785 12.7715 11.2019 13.15 11.2C13.6605 11.2 14.1502 10.9788 14.5112 10.5849C14.8722 10.1911 15.075 9.65697 15.075 9.10002C15.075 8.54306 14.8722 8.00892 14.5112 7.6151C14.1502 7.22127 13.6605 7.00002 13.15 7.00002Z" fill="white" fill-opacity="0.44"/>
</svg>
