<svg width="30" height="30" viewBox="0 0 30 30" fill="none" xmlns="http://www.w3.org/2000/svg">
<path d="M9.78634 20.2137C7.0981 17.5203 5.03074 14.2721 3.72884 10.6962C3.01259 8.74125 3.66884 6.59375 5.14134 5.12125L6.05259 4.21125C6.29757 3.96577 6.58857 3.77102 6.90891 3.63814C7.22925 3.50526 7.57266 3.43686 7.91946 3.43686C8.26627 3.43686 8.60968 3.50526 8.93002 3.63814C9.25036 3.77102 9.54136 3.96577 9.78634 4.21125L11.9201 6.345C12.1656 6.58998 12.3603 6.88097 12.4932 7.20132C12.6261 7.52166 12.6945 7.86506 12.6945 8.21187C12.6945 8.55868 12.6261 8.90209 12.4932 9.22243C12.3603 9.54277 12.1656 9.83376 11.9201 10.0787L11.3951 10.6037C11.1849 10.8138 11.0182 11.0633 10.9045 11.3378C10.7908 11.6123 10.7322 11.9066 10.7322 12.2037C10.7322 12.5009 10.7908 12.7952 10.9045 13.0697C11.0182 13.3442 11.1849 13.5936 11.3951 13.8037L16.1951 18.605C16.4052 18.8151 16.6546 18.9818 16.9292 19.0956C17.2037 19.2093 17.4979 19.2678 17.7951 19.2678C18.0922 19.2678 18.3865 19.2093 18.661 19.0956C18.9356 18.9818 19.185 18.8151 19.3951 18.605L19.9213 18.08C20.1663 17.8345 20.4573 17.6398 20.7777 17.5069C21.098 17.374 21.4414 17.3056 21.7882 17.3056C22.135 17.3056 22.4784 17.374 22.7988 17.5069C23.1191 17.6398 23.4101 17.8345 23.6551 18.08L25.7888 20.2137C26.0343 20.4587 26.2291 20.7497 26.362 21.0701C26.4948 21.3904 26.5632 21.7338 26.5632 22.0806C26.5632 22.4274 26.4948 22.7708 26.362 23.0912C26.2291 23.4115 26.0343 23.7025 25.7888 23.9475L24.8788 24.8575C23.4063 26.3312 21.2588 26.9875 19.3038 26.2712C15.728 24.9694 12.4798 22.902 9.78634 20.2137Z" stroke="white" stroke-opacity="0.35" stroke-width="1.5" stroke-linejoin="round"/>
</svg>
