<svg width="38" height="38" viewBox="0 0 38 38" fill="none" xmlns="http://www.w3.org/2000/svg">
<path d="M33.1234 28.5H4.87672C4.4265 28.4993 3.98161 28.4026 3.57171 28.2164C3.16182 28.0302 2.79634 27.7587 2.49966 27.4201C2.20298 27.0815 1.98192 26.6835 1.85122 26.2526C1.72052 25.8218 1.68319 25.3681 1.74172 24.9217C2.28005 20.9317 3.92672 18.3667 6.39672 17.6383C6.65005 13.2367 8.32838 0 19 0C29.6717 0 31.35 13.2367 31.6034 17.6383C34.0417 18.3667 35.7201 20.9317 36.2584 24.9217C36.3851 25.84 36.1001 26.7583 35.4984 27.4233C34.8967 28.0883 34.0417 28.5 33.1234 28.5ZM19 38C22.4834 38 25.3334 35.15 25.3334 31.6667H12.6667C12.6667 35.15 15.5167 38 19 38Z" fill="white" fill-opacity="0.58"/>
</svg>
