<svg width="43" height="50" viewBox="0 0 43 50" fill="none" xmlns="http://www.w3.org/2000/svg">
<path d="M21.375 0L42.75 12.375V37.125L21.375 49.5L0 37.125V12.375L21.375 0ZM21.375 5.19975L4.5 14.9692V34.5308L21.375 44.3002L38.25 34.5308V14.9692L21.375 5.19975ZM21.375 33.75C18.9881 33.75 16.6989 32.8018 15.011 31.114C13.3232 29.4261 12.375 27.1369 12.375 24.75C12.375 22.3631 13.3232 20.0739 15.011 18.386C16.6989 16.6982 18.9881 15.75 21.375 15.75C23.7619 15.75 26.0511 16.6982 27.739 18.386C29.4268 20.0739 30.375 22.3631 30.375 24.75C30.375 27.1369 29.4268 29.4261 27.739 31.114C26.0511 32.8018 23.7619 33.75 21.375 33.75ZM21.375 29.25C22.5685 29.25 23.7131 28.7759 24.557 27.932C25.4009 27.0881 25.875 25.9435 25.875 24.75C25.875 23.5565 25.4009 22.4119 24.557 21.568C23.7131 20.7241 22.5685 20.25 21.375 20.25C20.1815 20.25 19.0369 20.7241 18.193 21.568C17.3491 22.4119 16.875 23.5565 16.875 24.75C16.875 25.9435 17.3491 27.0881 18.193 27.932C19.0369 28.7759 20.1815 29.25 21.375 29.25Z" fill="white" fill-opacity="0.58"/>
</svg>
