<svg width="41" height="41" viewBox="0 0 41 41" fill="none" xmlns="http://www.w3.org/2000/svg">
<path d="M12.551 5.64556C12.4561 5.27722 12.513 4.88687 12.7093 4.55974C12.9055 4.23261 13.2252 3.99529 13.5984 3.89961C16.7105 3.10873 19.9753 3.10873 23.0874 3.89961C23.4321 3.98657 23.7327 4.19459 23.9327 4.48457C24.1327 4.77455 24.2183 5.12653 24.1735 5.47434C24.1287 5.82216 23.9565 6.14187 23.6893 6.37339C23.4221 6.60491 23.0782 6.7323 22.7224 6.73161C22.5993 6.73097 22.4767 6.71527 22.3575 6.68486C19.7243 6.01492 16.9615 6.01492 14.3283 6.68486C14.1424 6.73182 13.9488 6.74219 13.7588 6.71535C13.5688 6.68852 13.386 6.62501 13.2209 6.52848C13.0558 6.43194 12.9116 6.30426 12.7967 6.15276C12.6817 6.00126 12.5983 5.8289 12.551 5.64556ZM1.07119 18.7716C1.25595 18.8222 1.44901 18.8364 1.63934 18.8134C1.82967 18.7905 2.01354 18.7308 2.18046 18.6378C2.34737 18.5448 2.49406 18.4203 2.61213 18.2714C2.73021 18.1225 2.81736 17.9522 2.86861 17.7701C3.59595 15.1887 4.9774 12.8319 6.88317 10.9212C7.13268 10.6454 7.26494 10.2856 7.25254 9.91635C7.24015 9.54711 7.08405 9.19671 6.81659 8.93779C6.54913 8.67887 6.19083 8.53128 5.81593 8.52561C5.44104 8.51993 5.0783 8.6566 4.8029 8.9073C2.55144 11.1649 0.918896 13.9492 0.0584232 16.9987C0.00676447 17.1807 -0.00801666 17.3708 0.0149236 17.5584C0.0378638 17.746 0.0980764 17.9272 0.192122 18.0919C0.286168 18.2565 0.412206 18.4013 0.563037 18.5179C0.713868 18.6346 0.886537 18.7208 1.07119 18.7716ZM22.3575 37.3316C19.7243 38.0015 16.9615 38.0015 14.3283 37.3316C13.9558 37.2427 13.5627 37.3018 13.234 37.4961C12.9053 37.6904 12.6674 38.0043 12.5715 38.37C12.4757 38.7357 12.5297 39.1239 12.7218 39.4507C12.9139 39.7775 13.2288 40.0168 13.5984 40.1168C16.7105 40.9077 19.9753 40.9077 23.0874 40.1168C23.457 40.0168 23.7719 39.7775 23.964 39.4507C24.1561 39.1239 24.2101 38.7357 24.1143 38.37C24.0184 38.0043 23.7805 37.6904 23.4518 37.4961C23.1231 37.3018 22.73 37.2427 22.3575 37.3316ZM33.8172 17.7737C33.9207 18.1414 34.1683 18.4535 34.5054 18.6413C34.8425 18.8291 35.2415 18.8773 35.6146 18.7752C35.9877 18.6732 36.3045 18.4292 36.4951 18.0971C36.6857 17.7649 36.7346 17.3718 36.631 17.0041C35.77 13.9548 34.1375 11.1707 31.8865 8.91269C31.7535 8.77268 31.5934 8.6603 31.4156 8.58216C31.2378 8.50402 31.046 8.46171 30.8514 8.45771C30.6567 8.45371 30.4633 8.4881 30.2823 8.55887C30.1014 8.62963 29.9367 8.73533 29.7978 8.86976C29.659 9.00419 29.5488 9.16462 29.4738 9.34163C29.3988 9.51863 29.3605 9.70862 29.3611 9.90044C29.3617 10.0922 29.4012 10.282 29.4774 10.4585C29.5535 10.6351 29.6647 10.7948 29.8044 10.9284C31.7067 12.8397 33.0884 15.1947 33.8172 17.7737ZM36.6347 27.0141C35.6689 30.4451 33.7261 33.5319 31.0362 35.9093C30.8698 36.0572 30.6711 36.1655 30.4554 36.2256C30.2398 36.2857 30.0129 36.2961 29.7926 36.2559C29.5722 36.2158 29.3641 36.1261 29.1845 35.994C29.005 35.8618 28.8587 35.6907 28.757 35.4939C27.7808 33.5987 26.291 32.0069 24.4528 30.8949C22.6146 29.783 20.4998 29.1944 18.3429 29.1944C16.186 29.1944 14.0712 29.783 12.233 30.8949C10.3948 32.0069 8.90498 33.5987 7.92878 35.4939C7.82723 35.6906 7.68113 35.8616 7.50178 35.9937C7.32243 36.1258 7.11465 36.2155 6.89449 36.2558C6.67434 36.2961 6.44772 36.286 6.23217 36.2262C6.01662 36.1665 5.81792 36.0586 5.65143 35.9111C2.96139 33.5323 1.01869 30.4444 0.052949 27.0123C-0.0503778 26.6446 -0.0012442 26.2516 0.189541 25.9196C0.380327 25.5876 0.697136 25.3439 1.07027 25.2421C1.44341 25.1403 1.84231 25.1887 2.17922 25.3767C2.51614 25.5647 2.76346 25.8768 2.86679 26.2445C3.51979 28.5691 4.706 30.7149 6.3339 32.5163C7.96273 30.1884 10.2551 28.3882 12.9214 27.3431C11.4907 26.2333 10.4465 24.7117 9.93412 22.99C9.42176 21.2683 9.46669 19.432 10.0627 17.7366C10.6586 16.0412 11.776 14.5709 13.2594 13.5304C14.7428 12.4898 16.5184 11.9306 18.3392 11.9306C20.1601 11.9306 21.9357 12.4898 23.4191 13.5304C24.9025 14.5709 26.0199 16.0412 26.6158 17.7366C27.2118 19.432 27.2567 21.2683 26.7444 22.99C26.232 24.7117 25.1878 26.2333 23.7571 27.3431C26.4234 28.3882 28.7158 30.1884 30.3446 32.5163C31.9725 30.7149 33.1587 28.5691 33.8117 26.2445C33.863 26.0625 33.9502 25.8921 34.0682 25.7433C34.1863 25.5944 34.333 25.4699 34.4999 25.3769C34.6668 25.2839 34.8507 25.2242 35.041 25.2012C35.2313 25.1783 35.4244 25.1924 35.6091 25.243C35.7939 25.2935 35.9667 25.3794 36.1178 25.4958C36.2689 25.6121 36.3952 25.7566 36.4896 25.9211C36.584 26.0856 36.6446 26.2667 36.6679 26.4543C36.6912 26.6418 36.6768 26.832 36.6255 27.0141H36.6347ZM18.3429 26.3236C19.4978 26.3236 20.6268 25.9862 21.5871 25.3539C22.5473 24.7217 23.2958 23.823 23.7378 22.7717C24.1797 21.7203 24.2954 20.5633 24.07 19.4472C23.8447 18.3311 23.2886 17.3058 22.4719 16.5011C21.6553 15.6964 20.6148 15.1484 19.4821 14.9264C18.3494 14.7044 17.1753 14.8183 16.1083 15.2538C15.0413 15.6893 14.1293 16.4268 13.4877 17.373C12.846 18.3193 12.5035 19.4317 12.5035 20.5697C12.5035 22.0958 13.1188 23.5593 14.2139 24.6383C15.3089 25.7174 16.7942 26.3236 18.3429 26.3236Z" fill="white" fill-opacity="0.64"/>
</svg>
