<svg width="30" height="30" viewBox="0 0 30 30" fill="none" xmlns="http://www.w3.org/2000/svg">
<path d="M2.71875 24.75C2.34375 24.8125 2.00542 24.7237 1.70375 24.4837C1.40208 24.2437 1.25083 23.9267 1.25 23.5325V6.46875C1.25 6.07292 1.40125 5.75542 1.70375 5.51625C2.00625 5.27708 2.34458 5.18833 2.71875 5.25L7.71875 6.0625C8.01042 6.10417 8.25542 6.245 8.45375 6.485C8.65208 6.725 8.75083 7.00083 8.75 7.3125V22.6875C8.75 23 8.65083 23.2762 8.4525 23.5162C8.25417 23.7562 8.00958 23.8967 7.71875 23.9375L2.71875 24.75ZM12.5 23.75C12.1458 23.75 11.8492 23.63 11.61 23.39C11.3708 23.15 11.2508 22.8533 11.25 22.5V7.5C11.25 7.14583 11.37 6.84917 11.61 6.61C11.85 6.37083 12.1467 6.25083 12.5 6.25H17.5C17.8542 6.25 18.1513 6.37 18.3913 6.61C18.6313 6.85 18.7508 7.14667 18.75 7.5V22.5C18.75 22.8542 18.63 23.1512 18.39 23.3912C18.15 23.6312 17.8533 23.7508 17.5 23.75H12.5ZM22.2812 23.9375C21.9896 23.8958 21.745 23.7554 21.5475 23.5162C21.35 23.2771 21.2508 23.0008 21.25 22.6875V7.3125C21.25 7 21.3492 6.72417 21.5475 6.485C21.7458 6.24583 21.9904 6.105 22.2812 6.0625L27.2812 5.25C27.6563 5.1875 27.995 5.27625 28.2975 5.51625C28.6 5.75625 28.7508 6.07375 28.75 6.46875V23.5312C28.75 23.9271 28.5987 24.245 28.2962 24.485C27.9937 24.725 27.6554 24.8133 27.2812 24.75L22.2812 23.9375Z" fill="white" fill-opacity="0.38"/>
</svg>
